<?xml version="1.0" encoding="UTF-8"?><svg id="a" xmlns="http://www.w3.org/2000/svg" viewBox="0 0 16 16"><defs><style>.f{fill:none;}.g{fill:#e0db29;}</style></defs><circle class="g" cx="8" cy="8" r="8"/><g id="b"><g id="c"><rect id="d" class="f" x="3.05" y="3" width="10.02" height="11.61"/><path id="e" d="M10.68,3v1.77h-.31v-1.77h-2.39v1.52c-.38-.9-1.26-1.53-2.29-1.53H3.21V7.99h1.29c-.83,.45-1.39,1.34-1.39,2.35,0,1.15,.72,2.13,1.74,2.51l-.24,1.04,3.09,.72,.32-1.36-1.48-.35c.61-.18,1.12-.58,1.46-1.1v.95h4.95v-1.44h-2.16v-.27h2.16v-1.51h-2.16v-.27h2.16v-1.5h-1.42c.68-.31,1.19-.93,1.37-1.67h0s.05-.17,.07-.62V3h-2.27Zm-2.7,4.76v1.11c-.32-.49-.8-.87-1.37-1.07,.7-.28,1.25-.88,1.46-1.62,.2,.7,.7,1.28,1.35,1.58h-1.45Z"/></g></g></svg>